<?xml version="1.0" encoding="UTF-8" ?>
<!DOCTYPE svg PUBLIC "-//W3C//DTD SVG 1.1//EN" "http://www.w3.org/Graphics/SVG/1.1/DTD/svg11.dtd">
<svg width="26pt" height="26pt" viewBox="0 0 26 26" version="1.1" xmlns="http://www.w3.org/2000/svg">
<g id="#17daa3ff">
<path fill="#17daa3" opacity="1.00" d=" M 11.49 0.00 L 14.38 0.00 C 20.33 0.63 25.27 5.56 26.00 11.48 L 26.00 14.38 C 25.37 20.33 20.44 25.27 14.52 26.00 L 11.62 26.00 C 5.67 25.37 0.74 20.45 0.00 14.53 L 0.00 11.62 C 0.63 5.67 5.56 0.72 11.49 0.00 M 2.94 8.99 C 1.38 12.55 2.34 16.60 4.38 19.75 C 6.83 13.91 9.17 8.03 11.44 2.12 C 7.77 3.00 4.30 5.34 2.94 8.99 M 14.56 2.12 C 16.82 8.04 19.15 13.94 21.63 19.77 C 23.66 16.60 24.62 12.53 23.05 8.96 C 21.68 5.33 18.22 3.00 14.56 2.12 M 9.84 14.81 C 11.95 14.81 14.05 14.81 16.15 14.81 C 15.12 12.14 14.08 9.46 13.01 6.80 C 11.95 9.47 10.89 12.14 9.84 14.81 M 6.85 22.04 C 10.59 24.34 15.35 24.36 19.10 22.08 C 18.51 20.69 17.95 19.29 17.43 17.87 C 14.48 17.88 11.52 17.88 8.56 17.87 C 8.03 19.28 7.45 20.67 6.85 22.04 Z" />
</g>
</svg>
