
<svg xmlns="http://www.w3.org/2000/svg" version="1.1" width="1101px" height="576px" style="shape-rendering:geometricPrecision; text-rendering:geometricPrecision; image-rendering:optimizeQuality; fill-rule:evenodd; clip-rule:evenodd" xmlns:xlink="http://www.w3.org/1999/xlink">
<g><path style="opacity:0.99" fill="#f8f9f9" d="M -0.5,-0.5 C 29.8333,-0.5 60.1667,-0.5 90.5,-0.5C 85.4731,115.404 118.473,218.738 189.5,309.5C 230.643,206.068 271.976,102.734 313.5,-0.5C 360.833,-0.5 408.167,-0.5 455.5,-0.5C 441.739,33.6149 428.072,67.7816 414.5,102C 504.833,102.667 595.167,102.667 685.5,102C 671.747,67.9944 658.414,33.8277 645.5,-0.5C 692.5,-0.5 739.5,-0.5 786.5,-0.5C 827.246,103.07 868.579,206.404 910.5,309.5C 981.527,218.738 1014.53,115.405 1009.5,-0.5C 1039.83,-0.5 1070.17,-0.5 1100.5,-0.5C 1100.5,19.1667 1100.5,38.8333 1100.5,58.5C 1086.06,230.936 1010.06,368.77 872.5,472C 786.024,533.551 689.691,568.051 583.5,575.5C 561.167,575.5 538.833,575.5 516.5,575.5C 344.064,561.056 206.23,485.056 103,347.5C 41.449,261.024 6.94895,164.691 -0.5,58.5C -0.5,38.8333 -0.5,19.1667 -0.5,-0.5 Z M 360.5,231.5 C 486.833,231.5 613.167,231.5 739.5,231.5C 760.833,287.994 782.666,344.328 805,400.5C 805.991,402.447 806.325,404.447 806,406.5C 707.322,471.873 599.155,496.373 481.5,480C 412.049,469.306 348.549,444.139 291,404.5C 314.241,346.962 337.407,289.295 360.5,231.5 Z"/></g>
</svg>
