<svg width="108" height="27" viewBox="0 0 45 11" fill="none" xmlns="http://www.w3.org/2000/svg">
<path d="M0.21 10L3.752 0.116H5.222L8.764 10H7.336L6.342 7.158H2.618L1.624 10H0.21ZM2.982 6.01H5.978L4.886 2.888L4.494 1.474H4.466C4.326 2.07133 4.2 2.54267 4.088 2.888L2.982 6.01ZM9.95039 8.054V0.116H11.2944V7.83C11.2944 8.21267 11.3597 8.47867 11.4904 8.628C11.6304 8.768 11.8217 8.838 12.0644 8.838C12.1671 8.838 12.2464 8.83333 12.3024 8.824V10.028C12.1064 10.056 11.9571 10.07 11.8544 10.07C10.5851 10.07 9.95039 9.398 9.95039 8.054ZM13.2208 6.458C13.2208 5.34733 13.5568 4.45133 14.2288 3.77C14.9008 3.08867 15.7501 2.748 16.7768 2.748C17.7381 2.748 18.4895 3.06533 19.0308 3.7C19.5721 4.32533 19.8428 5.114 19.8428 6.066C19.8428 6.18733 19.8241 6.37867 19.7868 6.64H14.6348C14.6721 7.37733 14.9195 7.956 15.3768 8.376C15.8435 8.78667 16.4081 8.992 17.0708 8.992C17.8455 8.992 18.5408 8.71667 19.1568 8.166L19.7308 9.16C19.3948 9.468 18.9748 9.71533 18.4708 9.902C17.9761 10.0793 17.4815 10.168 16.9868 10.168C15.8855 10.168 14.9801 9.818 14.2708 9.118C13.5708 8.40867 13.2208 7.522 13.2208 6.458ZM14.6768 5.66H18.4708C18.4521 5.072 18.2795 4.61467 17.9528 4.288C17.6355 3.96133 17.2341 3.798 16.7488 3.798C16.2168 3.798 15.7595 3.966 15.3768 4.302C15.0035 4.62867 14.7701 5.08133 14.6768 5.66ZM21.0138 6.458C21.0138 5.40333 21.3684 4.52133 22.0778 3.812C22.7964 3.10267 23.7064 2.748 24.8078 2.748C25.9278 2.748 26.8144 3.09333 27.4678 3.784L26.8238 4.736C26.2824 4.19467 25.6291 3.924 24.8638 3.924C24.1544 3.924 23.5664 4.16667 23.0998 4.652C22.6331 5.128 22.3998 5.72533 22.3998 6.444C22.3998 7.172 22.6331 7.77867 23.0998 8.264C23.5758 8.74933 24.1778 8.992 24.9058 8.992C25.2978 8.992 25.6898 8.908 26.0818 8.74C26.4831 8.56267 26.8191 8.32933 27.0898 8.04L27.6358 9.034C27.3091 9.37933 26.8938 9.65467 26.3898 9.86C25.8858 10.0653 25.3584 10.168 24.8078 10.168C23.6971 10.168 22.7871 9.818 22.0778 9.118C21.3684 8.418 21.0138 7.53133 21.0138 6.458ZM29.3987 7.41V4.092H28.4747V2.986H29.4267V0.969999H30.7567V2.986H32.4647V4.092H30.7567V7.256C30.7567 7.52667 30.794 7.76467 30.8687 7.97C30.9434 8.166 31.032 8.32 31.1347 8.432C31.2467 8.544 31.3727 8.63267 31.5127 8.698C31.662 8.76333 31.7927 8.80533 31.9047 8.824C32.026 8.84267 32.1474 8.852 32.2687 8.852C32.39 8.852 32.4974 8.84267 32.5907 8.824V10.028C32.3667 10.056 32.208 10.07 32.1147 10.07C31.9 10.07 31.6854 10.0513 31.4707 10.014C31.2654 9.986 31.032 9.92067 30.7707 9.818C30.5094 9.706 30.2807 9.56133 30.0847 9.384C29.898 9.19733 29.7347 8.936 29.5947 8.6C29.464 8.25467 29.3987 7.858 29.3987 7.41ZM33.4415 6.444C33.4415 5.38933 33.8102 4.512 34.5475 3.812C35.2848 3.10267 36.1855 2.748 37.2495 2.748C38.3228 2.748 39.2282 3.098 39.9655 3.798C40.7028 4.498 41.0715 5.38 41.0715 6.444C41.0715 7.508 40.7028 8.39467 39.9655 9.104C39.2282 9.81333 38.3275 10.168 37.2635 10.168C36.1995 10.168 35.2942 9.81333 34.5475 9.104C33.8102 8.39467 33.4415 7.508 33.4415 6.444ZM34.8275 6.444C34.8275 7.18133 35.0608 7.79267 35.5275 8.278C36.0035 8.754 36.5822 8.992 37.2635 8.992C37.9355 8.992 38.5095 8.74933 38.9855 8.264C39.4615 7.77867 39.6995 7.172 39.6995 6.444C39.6995 5.716 39.4615 5.114 38.9855 4.638C38.5095 4.162 37.9355 3.924 37.2635 3.924C36.5822 3.924 36.0035 4.162 35.5275 4.638C35.0608 5.114 34.8275 5.716 34.8275 6.444Z" fill="white"/>
<path d="M42.6382 10V8.53H44.0942V10H42.6382Z" fill="#17DAA3"/>
</svg>
